<svg width="21" height="21" viewBox="0 0 21 21" fill="none" xmlns="http://www.w3.org/2000/svg">
<path fill-rule="evenodd" clip-rule="evenodd" d="M10.3571 0.3125C7.69314 0.3125 5.13825 1.37077 3.25451 3.25451C1.37077 5.13824 0.3125 7.69314 0.3125 10.3571C0.3125 13.0211 1.37077 15.576 3.25451 17.4598C5.13825 19.3435 7.69314 20.4018 10.3571 20.4018C13.0212 20.4018 15.576 19.3435 17.4598 17.4598C19.3435 15.576 20.4018 13.0211 20.4018 10.3571C20.4018 7.69314 19.3435 5.13824 17.4598 3.25451C15.576 1.37077 13.0212 0.3125 10.3571 0.3125ZM10.3565 14.8772C12.8529 14.8772 14.8766 12.8535 14.8766 10.3571C14.8766 7.86075 12.8529 5.83704 10.3565 5.83704C7.86013 5.83704 5.83642 7.86075 5.83642 10.3571C5.83642 12.8535 7.86013 14.8772 10.3565 14.8772Z" fill="#212133"/>
</svg>
