<svg width="32" height="32" viewBox="0 0 32 32" fill="none" xmlns="http://www.w3.org/2000/svg">
<g clip-path="url(#clip0_51_130)">
<path d="M12.9097 19.3674C12.9097 19.6773 13.1609 19.9286 13.4709 19.9286H14.1893C14.0672 19.5678 14.0232 19.1852 14.0602 18.8062H13.4709C13.1609 18.8062 12.9097 19.0574 12.9097 19.3674Z" fill="#212133"/>
<path d="M17.3527 0.325843C16.9158 0.232688 16.4598 0.316961 16.0851 0.560108C15.7104 0.803256 15.4477 1.18535 15.3547 1.62227L13.7384 11.9264C13.6658 12.3185 13.3296 12.607 12.931 12.6191C12.5323 12.6313 12.1792 12.3639 12.0828 11.9769L10.1017 2.86258C10.0133 2.25321 9.59936 1.74069 9.02223 1.52609C8.44509 1.31149 7.79685 1.42905 7.33183 1.83265C6.86681 2.23625 6.6592 2.8615 6.79045 3.46309L8.67055 13.7559C8.81558 14.5397 8.80605 15.3442 8.64249 16.1243C9.21641 15.5579 9.82968 15.0328 10.4777 14.5529C11.1519 14.0386 11.9757 13.7588 12.8236 13.7559H16.5726L18.6491 2.32941C18.7439 1.89172 18.6605 1.43428 18.4172 1.05827C18.1739 0.682272 17.7908 0.418695 17.3527 0.325843Z" fill="#212133"/>
<path d="M18.1222 21.1183C17.8293 21.3305 17.4975 21.4831 17.1457 21.5673C17.2219 21.6896 17.2894 21.8172 17.3477 21.9489C17.4232 22.1218 17.4068 22.3211 17.3039 22.4793C17.2011 22.6375 17.0257 22.7334 16.837 22.7347C16.6152 22.7332 16.415 22.6012 16.3263 22.3979C15.9681 21.5772 15.1565 21.0479 14.261 21.051H13.4697C12.5398 21.051 11.786 20.2972 11.786 19.3673C11.786 18.4374 12.5398 17.6836 13.4697 17.6836H15.1534C16.3932 17.6836 17.3983 16.6786 17.3983 15.4387V14.8775H12.8243C12.2171 14.8775 11.6263 15.0744 11.1406 15.4387C8.9406 17.0775 6.73499 19.5188 6.73499 22.3025C6.73336 23.5568 7.12601 24.7799 7.85744 25.7989L10.6636 29.6714C11.0898 30.2629 11.2891 30.988 11.2248 31.7142H20.7656C20.7656 30.1877 20.6141 30.5918 23.0835 26.3882C23.7329 25.0753 24.0909 23.6376 24.1329 22.1734V19.5806L22.8253 21.6627C22.3097 22.5515 21.3161 23.0499 20.2954 22.9318C19.2746 22.8136 18.4212 22.1014 18.1222 21.1183Z" fill="#212133"/>
<path d="M15.18 18.8061C15.0771 19.2768 15.2209 19.7674 15.5616 20.1081C15.9023 20.4488 16.393 20.5926 16.8637 20.4897C17.6774 20.3101 17.9861 19.676 18.407 18.9576C20.6968 15.2984 20.6126 15.4443 20.6519 15.3321C21.1673 14.6082 20.999 13.6036 20.2759 13.0872C19.9118 12.8836 19.4813 12.8343 19.0806 12.9503C18.6799 13.0663 18.3423 13.3379 18.1433 13.7045L17.9917 13.9459C18.3139 14.1471 18.5124 14.4977 18.5193 14.8775V15.4387C18.5193 17.2875 17.0288 18.7907 15.18 18.8061Z" fill="#212133"/>
<path d="M24.0221 14.8774C23.2933 14.4623 22.366 14.7129 21.9456 15.4387C21.6201 15.9662 22.1701 15.0346 19.3696 19.5581C19.1487 19.9065 19.076 20.3287 19.1675 20.731C19.3148 21.3223 19.8127 21.7607 20.4179 21.8318C21.0231 21.9029 21.6091 21.5919 21.8895 21.0509L24.4711 16.9484C24.9189 16.2525 24.7179 15.3254 24.0221 14.8774Z" fill="#212133"/>
</g>
<defs>
<clipPath id="clip0_51_130">
<rect width="31.4286" height="31.4286" fill="white" transform="translate(0 0.285706)"/>
</clipPath>
</defs>
</svg>
