<svg width="24" height="26" viewBox="0 0 24 26" fill="none" xmlns="http://www.w3.org/2000/svg">
<g clip-path="url(#clip0_51_120)">
<path d="M11.8881 16.1122V6.85077C11.6329 6.87505 11.3805 6.91603 11.1238 6.92818H3.77232C3.36505 6.92818 3.03452 7.26815 3.03452 7.68706V8.44594H0.821115C0.413848 8.44594 0.083313 8.78592 0.083313 9.20482V13.7581C0.083313 14.177 0.413848 14.517 0.821115 14.517H3.03452V15.2759C3.03452 15.6948 3.36505 16.0348 3.77232 16.0348H4.21943L7.18539 24.1669C7.36689 24.6541 7.77268 25.0078 8.27143 25.111C8.3703 25.1322 8.46917 25.1428 8.56656 25.1428C8.96054 25.1428 9.33534 24.982 9.6039 24.6936L11.3761 22.8859C11.8291 22.42 11.9368 21.693 11.6476 21.1299L9.17155 16.0348H11.1312C11.385 16.0469 11.6358 16.0879 11.8881 16.1122Z" fill="#212133"/>
<path d="M23.5728 1.22442C23.5581 1.19861 23.5448 1.17736 23.5256 1.15308C23.4445 1.04684 23.3426 0.960325 23.2172 0.910238C23.2128 0.908721 23.2098 0.90265 23.2054 0.901132C23.1907 0.896579 23.1774 0.904167 23.1626 0.899614C23.0962 0.879883 23.0298 0.857117 22.956 0.857117C22.9059 0.857117 22.8616 0.876848 22.8129 0.887472C22.7849 0.893543 22.7583 0.895061 22.7303 0.904167C22.6034 0.946665 22.4942 1.01952 22.4071 1.11969C22.4012 1.12576 22.3924 1.12728 22.3865 1.13335C20.086 4.00647 16.878 5.92796 13.3646 6.6322V16.3322C16.878 17.0365 20.086 18.9564 22.3865 21.8296C22.3924 21.8371 22.4027 21.8402 22.4101 21.8493C22.4617 21.9085 22.5252 21.9555 22.593 21.995C22.6152 22.0087 22.6329 22.0284 22.655 22.039C22.748 22.08 22.8483 22.1058 22.956 22.1058C23.0401 22.1058 23.1228 22.0906 23.2054 22.0618C23.2098 22.0603 23.2128 22.0542 23.2172 22.0527C23.3426 22.0026 23.4445 21.9176 23.5256 21.8098C23.5433 21.7855 23.5566 21.7643 23.5728 21.7385C23.6437 21.6216 23.6938 21.4926 23.6938 21.3469V1.616C23.6938 1.47029 23.6437 1.34128 23.5728 1.22442Z" fill="#212133"/>
</g>
<defs>
<clipPath id="clip0_51_120">
<rect width="23.6111" height="24.2857" fill="white" transform="translate(0.083313 0.857117)"/>
</clipPath>
</defs>
</svg>
